<?xml version="1.0" encoding="UTF-8" standalone="no"?>
<!-- Created with Inkscape (http://www.inkscape.org/) -->

<svg
   width="58"
   height="58"
   viewBox="0 0 15.345834 15.34583"
   version="1.1"
   id="svg1"
   inkscape:version="1.4.2 (f4327f4, 2025-05-13)"
   sodipodi:docname="favicon_r.svg"
   xmlns:inkscape="http://www.inkscape.org/namespaces/inkscape"
   xmlns:sodipodi="http://sodipodi.sourceforge.net/DTD/sodipodi-0.dtd"
   xmlns:xlink="http://www.w3.org/1999/xlink"
   xmlns="http://www.w3.org/2000/svg"
   xmlns:svg="http://www.w3.org/2000/svg">
  <sodipodi:namedview
     id="namedview1"
     pagecolor="#505050"
     bordercolor="#eeeeee"
     borderopacity="1"
     inkscape:showpageshadow="0"
     inkscape:pageopacity="0"
     inkscape:pagecheckerboard="0"
     inkscape:deskcolor="#505050"
     inkscape:document-units="px"
     inkscape:zoom="8.6174175"
     inkscape:cx="44.502892"
     inkscape:cy="35.451456"
     inkscape:window-width="1920"
     inkscape:window-height="1057"
     inkscape:window-x="-8"
     inkscape:window-y="-8"
     inkscape:window-maximized="1"
     inkscape:current-layer="layer1" />
  <defs
     id="defs1">
    <linearGradient
       id="linearGradient32"
       inkscape:collect="always">
      <stop
         style="stop-color:#00ffff;stop-opacity:0.41954023;"
         offset="0.15772872"
         id="stop33" />
      <stop
         style="stop-color:#000000;stop-opacity:0.25287357;"
         offset="0.64984226"
         id="stop34" />
    </linearGradient>
    <rect
       x="-0.23208809"
       y="5.221982"
       width="63.011918"
       height="33.072555"
       id="rect2" />
    <rect
       x="0.11604405"
       y="6.6145105"
       width="47.926189"
       height="28.894968"
       id="rect1" />
    <linearGradient
       inkscape:collect="always"
       xlink:href="#linearGradient32"
       id="linearGradient34"
       x1="0.7423035"
       y1="26.926938"
       x2="61.55554"
       y2="26.926938"
       gradientUnits="userSpaceOnUse" />
  </defs>
  <g
     inkscape:label="Layer 1"
     inkscape:groupmode="layer"
     id="layer1">
    <text
       xml:space="preserve"
       transform="scale(0.26458337)"
       id="text1"
       style="font-size:29.3333px;text-align:start;writing-mode:lr-tb;direction:ltr;white-space:pre;shape-inside:url(#rect1);display:inline;fill:#ffffff" />
    <path
       id="text2"
       style="font-size:29.3333px;text-align:start;writing-mode:lr-tb;direction:ltr;text-anchor:start;white-space:pre;shape-inside:url(#rect2);display:inline;fill:#00ff88;fill-opacity:1;stroke:url(#linearGradient34);stroke-width:0.99966269;stroke-dasharray:none"
       d="M 44.268669 9.6972136 L 44.268669 31.984318 L 49.209485 31.984318 L 49.425018 31.181584 C 50.036128 31.544431 50.680698 31.822643 51.358648 32.013615 C 52.036599 32.204587 52.823722 32.298771 53.721291 32.298771 C 55.812434 32.298771 57.555388 31.502763 58.949484 29.908147 C 60.353128 28.31353 61.05554 26.251027 61.05554 23.720648 C 61.05554 21.142526 60.505322 19.122991 59.407233 17.662056 C 58.309144 16.191571 56.744538 15.455025 54.710686 15.455025 C 53.631694 15.455025 52.675863 15.651423 51.845135 16.042915 C 51.023956 16.434408 50.217551 16.94591 49.425018 17.576118 L 49.425018 9.6972136 L 44.268669 9.6972136 z M 12.14207 10.242135 C 10.518808 10.242135 9.0196316 10.499948 7.6446332 11.015573 C 6.2791834 11.531197 5.13465 12.261667 4.2084358 13.206978 C 3.2440271 14.190484 2.5078734 15.369089 2.0017976 16.744087 C 1.4957218 18.119085 1.2423035 19.65164 1.2423035 21.341742 C 1.2423035 23.155976 1.5053622 24.756022 2.0305352 26.140569 C 2.5652568 27.525116 3.3158712 28.681151 4.2802798 29.607365 C 5.2446884 30.53358 6.394042 31.229327 7.7308461 31.697209 C 9.0771987 32.16509 10.542633 32.400334 12.127701 32.400334 C 13.197144 32.400334 14.03729 32.347165 14.6484 32.24213 C 15.259511 32.137096 15.913721 31.983667 16.610769 31.783146 C 17.14549 31.630369 17.657147 31.450247 18.144126 31.240178 C 18.631104 31.030108 19.140708 30.805065 19.67543 30.56635 L 19.67543 25.466741 L 19.10273 25.466741 C 18.844918 25.695908 18.516429 25.968044 18.115388 26.283147 C 17.714347 26.598251 17.279813 26.89491 16.811932 27.171819 C 16.258113 27.515569 15.652105 27.787705 14.993251 27.988225 C 14.343947 28.188746 13.684916 28.289006 13.016514 28.289006 C 12.319466 28.289006 11.612234 28.178546 10.896089 27.958928 C 10.179944 27.729762 9.5305539 27.353242 8.9480893 26.828069 C 8.3751732 26.312445 7.897258 25.606497 7.515314 24.708929 C 7.1429186 23.811361 6.9569832 22.694171 6.9569832 21.357367 C 6.9569832 20.077855 7.1305106 18.989311 7.4742602 18.091743 C 7.8275584 17.194175 8.2841402 16.471951 8.8475076 15.927681 C 9.4395208 15.364314 10.084091 14.963271 10.781138 14.724556 C 11.478186 14.476293 12.21434 14.353463 12.987777 14.353463 C 13.684824 14.353463 14.339035 14.457846 14.950145 14.667916 C 15.561255 14.877985 16.128702 15.135798 16.653875 15.441353 C 17.169499 15.746908 17.628134 16.05789 18.029175 16.372993 C 18.439765 16.688097 18.777894 16.960233 19.045255 17.189399 L 19.67543 17.189399 L 19.67543 12.017526 C 19.283937 11.826554 18.827355 11.621909 18.302182 11.402291 C 17.786558 11.173125 17.207418 10.968481 16.567662 10.787057 C 15.956552 10.624731 15.287881 10.495824 14.562187 10.400338 C 13.846042 10.295304 13.039638 10.242135 12.14207 10.242135 z M 32.223503 10.271432 C 29.425763 10.271432 27.134644 10.901642 25.349056 12.162057 C 23.573016 13.412923 22.684668 15.031416 22.684668 17.017524 C 22.684668 18.497557 23.07582 19.737577 23.858805 20.74018 C 24.651339 21.733234 25.945299 22.520996 27.740436 23.103461 C 28.523421 23.361273 29.358746 23.576117 30.246766 23.747992 C 31.144334 23.910318 31.99412 24.08827 32.796203 24.279242 C 33.560091 24.460665 34.137178 24.722601 34.52867 25.066351 C 34.929712 25.400552 35.130108 25.801594 35.130108 26.269476 C 35.130108 26.775551 34.992374 27.158147 34.715465 27.41596 C 34.448104 27.673772 34.105155 27.888616 33.685016 28.060491 C 33.341267 28.194171 32.897093 28.288355 32.352823 28.345647 C 31.808552 28.402939 31.369199 28.431584 31.034998 28.431584 C 29.736388 28.431584 28.379766 28.188094 26.966573 27.701116 C 25.562929 27.214137 24.29307 26.51839 23.156786 25.611273 L 22.555349 25.611273 L 22.555349 30.724553 C 23.701181 31.201983 24.927658 31.596949 26.235816 31.912052 C 27.553523 32.217608 29.096081 32.371037 30.862572 32.371037 C 33.918124 32.371037 36.334569 31.716305 38.110609 30.408146 C 39.896197 29.09044 40.789365 27.381887 40.789365 25.281194 C 40.789365 23.81071 40.396161 22.617783 39.613175 21.701117 C 38.839739 20.774903 37.637363 20.044433 36.004552 19.509711 C 35.173824 19.242351 34.396341 19.03163 33.670647 18.878852 C 32.954502 18.726075 32.203888 18.568522 31.420903 18.406196 C 30.227328 18.157932 29.416103 17.885797 28.986416 17.58979 C 28.556729 17.284235 28.341873 16.850423 28.341873 16.287056 C 28.341873 15.91466 28.474786 15.585233 28.742147 15.298775 C 29.009508 15.002768 29.330409 14.781848 29.702804 14.638619 C 30.122943 14.466744 30.557476 14.35216 31.00626 14.294869 C 31.464593 14.228029 31.923227 14.195259 32.38156 14.195259 C 33.68017 14.195259 34.950029 14.42855 36.191347 14.896431 C 37.442213 15.354764 38.497215 15.927682 39.356589 16.615181 L 39.943658 16.615181 L 39.943658 11.703073 C 38.941055 11.292483 37.751087 10.952855 36.376088 10.685495 C 35.010639 10.408585 33.627148 10.271432 32.223503 10.271432 z M 52.403466 19.351508 C 53.654333 19.351508 54.523399 19.738228 55.010378 20.511664 C 55.497357 21.285101 55.741134 22.387967 55.741134 23.820257 C 55.741134 25.424422 55.407825 26.627549 54.739423 27.429632 C 54.071021 28.231714 53.052528 28.632756 51.687078 28.632756 C 51.219197 28.632756 50.818405 28.608234 50.484204 28.560491 C 50.150003 28.512748 49.797413 28.422687 49.425018 28.289006 L 49.425018 20.210883 C 49.892899 19.933974 50.385275 19.723253 50.900899 19.580024 C 51.416524 19.427246 51.916487 19.351508 52.403466 19.351508 z M 31.034998 36.669864 A 27.928715 7.8329715 0 0 0 3.5207857 43.158144 A 30.855744 7.8329715 0 0 1 30.792781 38.990176 A 30.855744 7.8329715 0 0 1 58.736004 43.501894 A 27.928715 7.8329715 0 0 0 31.034998 36.669864 z "
       transform="matrix(0.2517502,0,0,0.26458337,-0.13756707,-0.36843975)" />
  </g>
</svg>
